<svg width="107" height="107" fill="none" xmlns="http://www.w3.org/2000/svg"><path d="M31.084 80.893l-4.98-4.98 49.809-49.81 4.98 4.98-49.81 49.81zm23.986-14.02l-14.02 14.02-4.986 4.987-4.98 4.98a7.041 7.041 0 0 1-9.96 0l-4.981-4.98a7.049 7.049 0 0 1 0-9.967l4.98-4.98 4.98-4.98L40.13 51.925c-7.848-3.721-17.5-2.421-23.986 4.066l-9.96 9.96c-8.242 8.241-8.242 21.648 0 29.888l4.98 4.981c8.24 8.24 21.647 8.24 29.888 0l9.96-9.96c6.487-6.487 7.78-16.145 4.059-23.987zm45.751-55.71l-4.98-4.98c-8.241-8.242-21.648-8.242-29.889 0l-9.96 9.96c-6.487 6.487-7.787 16.137-4.066 23.986l14.026-14.026 4.98-4.98 4.98-4.98a7.05 7.05 0 0 1 9.968 0l4.98 4.98a7.047 7.047 0 0 1 0 9.96l-4.98 4.98-4.987 4.988-14.026 14.026c7.849 3.714 17.507 2.421 23.993-4.066l9.961-9.96c8.241-8.24 8.241-21.648 0-29.888z" fill="#fff"/></svg>