<svg width="107" height="107" fill="none" xmlns="http://www.w3.org/2000/svg"><path d="M94.46 0H12.54C5.624 0 0 5.625 0 12.54v65.202c0 6.915 5.625 12.54 12.54 12.54h28.212v-8.36H12.539a4.185 4.185 0 0 1-4.18-4.18V33.437h90.282v44.305a4.185 4.185 0 0 1-4.18 4.18H66.039v8.36h28.422c6.914 0 12.539-5.625 12.539-12.54V12.54C107 5.625 101.375 0 94.46 0zM8.36 25.078V12.54a4.185 4.185 0 0 1 4.18-4.18h81.92a4.185 4.185 0 0 1 4.18 4.18v12.54H8.36zm14.628-8.36a4.18 4.18 0 1 1-8.358.001 4.18 4.18 0 0 1 8.358 0zm14.63 0a4.18 4.18 0 1 1-8.36.001 4.18 4.18 0 0 1 8.36 0zM65.62 70.07l-8.15-8.15v32.542c0 6.914-5.625 12.539-12.54 12.539H20.899v-8.36h24.034a4.185 4.185 0 0 0 4.18-4.18V61.92l-8.151 8.15-5.911-5.91L53.29 45.916l18.241 18.241-5.91 5.911z" fill="#fff"/></svg>